<?xml version="1.0" encoding="UTF-8"?>
<!DOCTYPE svg PUBLIC "-//W3C//DTD SVG 1.1//EN" "http://www.w3.org/Graphics/SVG/1.1/DTD/svg11.dtd">
<svg xmlns="http://www.w3.org/2000/svg" version="1.1" width="128px" height="128px" style="shape-rendering:geometricPrecision; text-rendering:geometricPrecision; image-rendering:optimizeQuality; fill-rule:evenodd; clip-rule:evenodd" xmlns:xlink="http://www.w3.org/1999/xlink">
<g><path style="opacity:1" fill="#404040" d="M -0.5,-0.5 C 42.1667,-0.5 84.8333,-0.5 127.5,-0.5C 127.5,42.1667 127.5,84.8333 127.5,127.5C 84.8333,127.5 42.1667,127.5 -0.5,127.5C -0.5,84.8333 -0.5,42.1667 -0.5,-0.5 Z"/></g>
<g><path style="opacity:1" fill="#50cefc" d="M 64.5,56.5 C 64.56,57.0431 64.8933,57.3764 65.5,57.5C 66.4989,45.8523 66.8322,34.1857 66.5,22.5C 72.8333,22.5 79.1667,22.5 85.5,22.5C 85.5,38.1667 85.5,53.8333 85.5,69.5C 79.6701,69.7454 76.3368,72.7454 75.5,78.5C 78.1194,78.2317 80.6194,78.565 83,79.5C 83.8518,78.4293 84.6851,77.4293 85.5,76.5C 85.5,78.1667 85.5,79.8333 85.5,81.5C 85.5,83.8333 85.5,86.1667 85.5,88.5C 78.8002,88.83 72.1335,88.4967 65.5,87.5C 58.1408,76.4822 50.8075,65.4822 43.5,54.5C 43.2172,53.7109 42.7172,53.0442 42,52.5C 41.5001,64.4954 41.3335,76.4954 41.5,88.5C 35.1667,88.5 28.8333,88.5 22.5,88.5C 22.5,66.5 22.5,44.5 22.5,22.5C 29.1998,22.17 35.8665,22.5033 42.5,23.5C 50.0916,34.3566 57.425,45.3566 64.5,56.5 Z"/></g>
<g><path style="opacity:1" fill="#457181" d="M 66.5,22.5 C 66.8322,34.1857 66.4989,45.8523 65.5,57.5C 64.8933,57.3764 64.56,57.0431 64.5,56.5C 65.1667,45.1667 65.8333,33.8333 66.5,22.5 Z"/></g>
<g><path style="opacity:1" fill="#446571" d="M 43.5,54.5 C 42.8333,65.8333 42.1667,77.1667 41.5,88.5C 41.3335,76.4954 41.5001,64.4954 42,52.5C 42.7172,53.0442 43.2172,53.7109 43.5,54.5 Z"/></g>
<g><path style="opacity:1" fill="#9e0ff4" d="M 85.5,69.5 C 90.4082,68.874 94.9082,69.874 99,72.5C 101.54,77.097 100.707,80.9304 96.5,84C 101.287,86.799 102.787,90.9656 101,96.5C 98.2518,101.292 94.0851,103.626 88.5,103.5C 81.7618,103.768 77.0951,100.768 74.5,94.5C 77.7527,93.4025 81.0861,92.7358 84.5,92.5C 85.3385,97.6677 87.8385,98.6677 92,95.5C 93.4978,89.846 91.3312,87.5126 85.5,88.5C 85.5,86.1667 85.5,83.8333 85.5,81.5C 89.9872,81.8589 91.6539,80.0256 90.5,76C 88.6131,75.2204 86.9464,75.3871 85.5,76.5C 84.6851,77.4293 83.8518,78.4293 83,79.5C 80.6194,78.565 78.1194,78.2317 75.5,78.5C 76.3368,72.7454 79.6701,69.7454 85.5,69.5 Z"/></g>
<g><path style="opacity:1" fill="#453f4a" d="M 85.5,81.5 C 85.5,79.8333 85.5,78.1667 85.5,76.5C 86.9464,75.3871 88.6131,75.2204 90.5,76C 91.6539,80.0256 89.9872,81.8589 85.5,81.5 Z"/></g>
</svg>
