<?xml version="1.0" encoding="UTF-8"?>
<!DOCTYPE svg PUBLIC "-//W3C//DTD SVG 1.1//EN" "http://www.w3.org/Graphics/SVG/1.1/DTD/svg11.dtd">
<svg xmlns="http://www.w3.org/2000/svg" version="1.1" width="456px" height="456px" style="shape-rendering:geometricPrecision; text-rendering:geometricPrecision; image-rendering:optimizeQuality; fill-rule:evenodd; clip-rule:evenodd" xmlns:xlink="http://www.w3.org/1999/xlink">
<g><path style="opacity:1" fill="#404040" d="M -0.5,-0.5 C 151.5,-0.5 303.5,-0.5 455.5,-0.5C 455.5,151.5 455.5,303.5 455.5,455.5C 303.5,455.5 151.5,455.5 -0.5,455.5C -0.5,303.5 -0.5,151.5 -0.5,-0.5 Z"/></g>
<g><path style="opacity:1" fill="#50cdfa" d="M 29.5,183.5 C 33.8839,183.174 38.2172,183.508 42.5,184.5C 58.1962,207.698 73.6962,231.031 89,254.5C 89.5,230.836 89.6666,207.169 89.5,183.5C 93.5,183.5 97.5,183.5 101.5,183.5C 101.5,214.167 101.5,244.833 101.5,275.5C 96.9014,275.8 92.4014,275.467 88,274.5C 72.9148,251.328 57.5814,228.328 42,205.5C 41.5,228.831 41.3334,252.164 41.5,275.5C 37.5,275.5 33.5,275.5 29.5,275.5C 29.5,244.833 29.5,214.167 29.5,183.5 Z"/></g>
<g><path style="opacity:1" fill="#4ba8c9" d="M 205.5,184.5 C 201.5,184.5 197.5,184.5 193.5,184.5C 193.5,214.833 193.5,245.167 193.5,275.5C 192.502,245.005 192.169,214.338 192.5,183.5C 197.032,183.182 201.366,183.515 205.5,184.5 Z"/></g>
<g><path style="opacity:1" fill="#50cffd" d="M 205.5,184.5 C 221.558,207.594 237.391,230.928 253,254.5C 253.5,231.169 253.667,207.836 253.5,184.5C 257.167,184.5 260.833,184.5 264.5,184.5C 264.5,214.833 264.5,245.167 264.5,275.5C 260.486,275.666 256.486,275.499 252.5,275C 236.275,251.773 220.442,228.273 205,204.5C 204.5,228.164 204.333,251.831 204.5,275.5C 200.833,275.5 197.167,275.5 193.5,275.5C 193.5,245.167 193.5,214.833 193.5,184.5C 197.5,184.5 201.5,184.5 205.5,184.5 Z"/></g>
<g><path style="opacity:1" fill="#4ba3c3" d="M 253.5,184.5 C 257.298,183.517 261.298,183.183 265.5,183.5C 265.831,214.338 265.498,245.005 264.5,275.5C 264.5,245.167 264.5,214.833 264.5,184.5C 260.833,184.5 257.167,184.5 253.5,184.5 Z"/></g>
<g><path style="opacity:1" fill="#4aa8ca" d="M 422.5,194.5 C 422.5,191.167 422.5,187.833 422.5,184.5C 400.833,184.5 379.167,184.5 357.5,184.5C 357.5,214.833 357.5,245.167 357.5,275.5C 356.502,245.005 356.169,214.338 356.5,183.5C 378.833,183.5 401.167,183.5 423.5,183.5C 423.815,187.371 423.482,191.038 422.5,194.5 Z"/></g>
<g><path style="opacity:1" fill="#50cffd" d="M 422.5,194.5 C 404.833,194.5 387.167,194.5 369.5,194.5C 369.5,203.833 369.5,213.167 369.5,222.5C 386.167,222.5 402.833,222.5 419.5,222.5C 419.5,226.167 419.5,229.833 419.5,233.5C 402.833,233.5 386.167,233.5 369.5,233.5C 369.5,243.833 369.5,254.167 369.5,264.5C 388.167,264.5 406.833,264.5 425.5,264.5C 425.5,268.167 425.5,271.833 425.5,275.5C 402.833,275.5 380.167,275.5 357.5,275.5C 357.5,245.167 357.5,214.833 357.5,184.5C 379.167,184.5 400.833,184.5 422.5,184.5C 422.5,187.833 422.5,191.167 422.5,194.5 Z"/></g>
<g><path style="opacity:1" fill="#50cbf8" d="M 139.5,207.5 C 148.461,206.701 157.128,207.868 165.5,211C 169.039,212.907 171.539,215.74 173,219.5C 174.273,235.78 174.94,252.114 175,268.5C 175.557,270.615 176.391,272.615 177.5,274.5C 173.555,275.491 169.555,275.824 165.5,275.5C 165.456,272.684 164.456,270.351 162.5,268.5C 152.686,275.869 141.686,278.369 129.5,276C 117.333,270.168 113.833,261.002 119,248.5C 123.064,242.877 128.564,239.377 135.5,238C 144.587,236.93 153.587,235.43 162.5,233.5C 164.234,225.456 161.234,220.29 153.5,218C 148.5,217.333 143.5,217.333 138.5,218C 133.766,219.94 130.766,223.44 129.5,228.5C 125.861,229.46 122.195,229.46 118.5,228.5C 120.817,216.837 127.817,209.837 139.5,207.5 Z"/></g>
<g><path style="opacity:1" fill="#50ccf9" d="M 304.5,207.5 C 322.748,205.699 334.915,213.366 341,230.5C 341.667,238.167 341.667,245.833 341,253.5C 338.268,265.232 331.101,272.732 319.5,276C 298.196,279.939 285.029,271.439 280,250.5C 277.612,237.08 280.778,225.247 289.5,215C 294.152,211.628 299.152,209.128 304.5,207.5 Z"/></g>
<g><path style="opacity:1" fill="#404141" d="M 304.5,217.5 C 318.143,215.565 326.643,221.232 330,234.5C 332.05,245.613 329.55,255.447 322.5,264C 308.685,271.175 298.852,267.675 293,253.5C 290.207,243.345 291.207,233.678 296,224.5C 298.441,221.546 301.275,219.213 304.5,217.5 Z"/></g>
<g><path style="opacity:1" fill="#404243" d="M 159.5,242.5 C 160.5,242.5 161.5,242.5 162.5,242.5C 163.28,262.22 153.947,270.387 134.5,267C 128.818,263.469 127.318,258.635 130,252.5C 132.626,249.769 135.793,247.936 139.5,247C 146.467,246.235 153.134,244.735 159.5,242.5 Z"/></g>
<g><path style="opacity:1" fill="#a104f8" d="M 353.5,283.5 C 357.106,283.211 360.606,283.544 364,284.5C 367.864,295.092 371.531,305.759 375,316.5C 378.966,305.633 382.466,294.633 385.5,283.5C 389.182,283.335 392.848,283.501 396.5,284C 390.471,298.921 385.137,314.088 380.5,329.5C 376.774,329.823 373.107,329.489 369.5,328.5C 363.765,313.628 358.432,298.628 353.5,283.5 Z"/></g>
<g><path style="opacity:1" fill="#9f07f3" d="M 408.5,283.5 C 414.883,282.476 420.383,284.143 425,288.5C 427.844,294.829 426.677,300.162 421.5,304.5C 424.035,306.17 426.201,308.17 428,310.5C 429.732,324.435 423.565,330.935 409.5,330C 402.697,328.033 399.031,323.533 398.5,316.5C 401.572,316.183 404.572,316.516 407.5,317.5C 410.408,323.29 414.242,323.957 419,319.5C 421.031,311.205 418.031,307.872 410,309.5C 409.825,306.843 409.992,304.176 410.5,301.5C 416.908,301.19 418.908,298.024 416.5,292C 414.167,291.333 411.833,291.333 409.5,292C 409.161,295.339 407.328,296.839 404,296.5C 399.281,296.033 398.281,293.7 401,289.5C 403.114,286.879 405.614,284.879 408.5,283.5 Z"/></g>
</svg>
